<svg id="Layer_1" data-name="Layer 1" xmlns="http://www.w3.org/2000/svg" xmlns:xlink="http://www.w3.org/1999/xlink" viewBox="0 0 637.92 273.47"><defs><style>.cls-1{fill:none;}.cls-2{fill:#2c3d22;}.cls-3{clip-path:url(#clip-path);}.cls-4{fill:#91aa3c;}.cls-5{fill:#678137;}.cls-6{fill:#586b31;}.cls-7{fill:#465627;}.cls-8{fill:#89ab4c;}.cls-9{fill:#9bbf58;}</style><clipPath id="clip-path" transform="translate(-221.04 -403.26)"><rect class="cls-1" width="1080" height="1080"/></clipPath></defs><title>Olive info</title><rect class="cls-2" x="222.09" y="67.39" width="1" height="206.08"/><g class="cls-3"><path class="cls-4" d="M318.38,476.2a97.35,97.35,0,1,0,97.34,97.35,97.35,97.35,0,0,0-97.34-97.35m0,150.36a52.86,52.86,0,1,1,52.86-52.86,52.86,52.86,0,0,1-52.86,52.86" transform="translate(-221.04 -403.26)"/><path class="cls-5" d="M342.31,620.83A52.85,52.85,0,0,1,273.09,601H225a97.44,97.44,0,0,0,117.35,67Z" transform="translate(-221.04 -403.26)"/><path class="cls-6" d="M343,526.92a52.86,52.86,0,0,1-1.17,94.15v47a97.39,97.39,0,0,0,62-141.11Z" transform="translate(-221.04 -403.26)"/><path class="cls-7" d="M344.68,527.85h59.67a97.4,97.4,0,0,0-107.3-49.29v46.78a52.82,52.82,0,0,1,47.63,2.51" transform="translate(-221.04 -403.26)"/><rect class="cls-5" x="115.99" width="37.8" height="37.8"/><path class="cls-8" d="M337.59,403.29v37.25l-27.81,27.78V429.89s-.25-7.81,10.69-19.09c8.15-8.41,17.12-7.51,17.12-7.51" transform="translate(-221.04 -403.26)"/><path class="cls-9" d="M374.8,440.5l-37.21,0-27.81,27.78h38.43s7.81.25,19.09-10.69c8.41-8.15,7.5-17.13,7.5-17.13" transform="translate(-221.04 -403.26)"/><path class="cls-2" d="M471.57,532.11c0-16,12.37-27.41,29.29-27.41s29.2,11.38,29.2,27.41-12.28,27.42-29.2,27.42-29.29-11.39-29.29-27.42m42.85,0c0-9.2-5.84-14.75-13.56-14.75s-13.66,5.55-13.66,14.75,5.94,14.75,13.66,14.75,13.56-5.55,13.56-14.75" transform="translate(-221.04 -403.26)"/><polygon class="cls-2" points="340.39 86.19 340.39 155.47 324.36 155.47 324.36 99.06 310.5 99.06 310.5 86.19 340.39 86.19"/><path class="cls-2" d="M574.9,489.46c0-4.86,3.86-8.62,9.59-8.62s9.6,3.57,9.6,8.32c0,5.14-3.86,8.91-9.6,8.91s-9.59-3.77-9.59-8.61m1.88,16h15.43v53.24H576.78Z" transform="translate(-221.04 -403.26)"/><polygon class="cls-2" points="438.37 102.22 415.91 155.47 399.97 155.47 377.61 102.22 393.54 102.22 408.29 138.45 423.53 102.22 438.37 102.22"/><path class="cls-2" d="M716.13,536.47H675.85c1.48,6.63,7.12,10.68,15.24,10.68A18.06,18.06,0,0,0,704.45,542l8.21,8.91c-4.95,5.64-12.37,8.61-22,8.61-18.41,0-30.38-11.58-30.38-27.42s12.17-27.41,28.4-27.41c15.64,0,27.71,10.49,27.71,27.61,0,1.19-.19,2.87-.29,4.16m-40.48-9h26.23a12.65,12.65,0,0,0-13.07-11.08c-7,0-12.07,4.25-13.16,11.08" transform="translate(-221.04 -403.26)"/><path class="cls-2" d="M469.8,580a3.27,3.27,0,1,1,3.27,3.16A3.29,3.29,0,0,1,469.8,580m1.68,16.62h3.27V648h-3.27Z" transform="translate(-221.04 -403.26)"/><path class="cls-2" d="M541.65,617.79V648h-3.26V618c0-12.27-6.54-18.71-17.72-18.71-12.87,0-20.69,8.32-20.69,21V648h-3.26V596.61h3.17v12.57c3.26-7.92,10.68-13,21.08-13,12.57,0,20.68,7.42,20.68,21.57" transform="translate(-221.04 -403.26)"/><path class="cls-2" d="M567.19,587.9v8.71h16.92v2.87H567.19V648h-3.27v-48.5h-9.7v-2.87h9.7v-9.1c0-8,4.75-13.26,13.16-13.26,3.77,0,7.72,1.08,10.2,3.46l-1.68,2.47a12.31,12.31,0,0,0-8.32-3.06c-6.73,0-10.09,3.76-10.09,10.78" transform="translate(-221.04 -403.26)"/><path class="cls-2" d="M587.68,622.25c0-15.25,10.78-26,25.23-26s25.24,10.78,25.24,26-10.69,26-25.24,26-25.23-10.78-25.23-26m47.2,0c0-13.66-9.4-23-22-23s-22,9.3-22,23,9.4,23.06,22,23.06,22-9.41,22-23.06" transform="translate(-221.04 -403.26)"/><path class="cls-2" d="M648.45,622.25c0-15.34,10.78-26,25.53-26,7.72,0,14.65,3,19,8.81l-2.47,2.07c-3.86-5.34-9.9-7.81-16.53-7.81-12.77,0-22.27,9.3-22.27,23s9.5,23.06,22.27,23.06c6.63,0,12.67-2.48,16.53-7.82l2.47,2c-4.35,5.84-11.28,8.8-19,8.8-14.75,0-25.53-10.68-25.53-26" transform="translate(-221.04 -403.26)"/><path class="cls-2" d="M731.78,596.22v3.26h-.89c-12,0-19,8-19,21.18V648h-3.27V596.61h3.17V609c3-8.11,9.9-12.76,20-12.76" transform="translate(-221.04 -403.26)"/><path class="cls-2" d="M781.86,614.72V648h-3.17v-10.3c-3.16,6.44-9.7,10.59-19.1,10.59-11.58,0-18.41-5.84-18.41-14.45,0-7.52,4.75-14.05,18.71-14.05h18.7v-5c0-10.19-5.44-15.53-15.83-15.53a26.55,26.55,0,0,0-18.31,6.92l-1.78-2.37c5-4.65,12.37-7.52,20.19-7.52,12.27,0,19,6.43,19,18.5m-3.27,18.41V622.44h-18.7c-11.19,0-15.44,4.75-15.44,11.19,0,7.32,5.74,11.87,15.34,11.87s15.64-4.45,18.8-12.37" transform="translate(-221.04 -403.26)"/><path class="cls-2" d="M807.39,587.9v8.71h16.93v2.87H807.39V648h-3.26v-48.5h-9.7v-2.87h9.7v-9.1c0-8,4.75-13.26,13.16-13.26,3.76,0,7.72,1.08,10.19,3.46l-1.68,2.47a12.29,12.29,0,0,0-8.31-3.06c-6.73,0-10.1,3.76-10.1,10.78" transform="translate(-221.04 -403.26)"/><path class="cls-2" d="M859,644.71c-2.48,2.38-6.53,3.56-10.29,3.56-8.52,0-13.07-5.14-13.07-13.16V599.48h-9.7v-2.87h9.7V585.33h3.27v11.28h16.92v2.87H838.87v35.14c0,6.92,3.46,10.78,10.09,10.78a12.36,12.36,0,0,0,8.32-3.06Z" transform="translate(-221.04 -403.26)"/></g></svg>